solid shape, STL ascii file, created with Open CASCADE Technology
 facet normal -1.000000e+00 0.000000e+00 0.000000e+00
   outer loop
     vertex 0.000000e+00 0.000000e+00 1.200000e+01
     vertex 0.000000e+00 1.600000e+01 1.200000e+01
     vertex 0.000000e+00 1.600000e+01 0.000000e+00
   endloop
 endfacet
 facet normal -1.000000e+00 0.000000e+00 0.000000e+00
   outer loop
     vertex 0.000000e+00 0.000000e+00 1.200000e+01
     vertex 0.000000e+00 1.600000e+01 0.000000e+00
     vertex 0.000000e+00 0.000000e+00 0.000000e+00
   endloop
 endfacet
 facet normal 1.000000e+00 -0.000000e+00 0.000000e+00
   outer loop
     vertex 2.400000e+01 0.000000e+00 1.200000e+01
     vertex 2.400000e+01 1.600000e+01 0.000000e+00
     vertex 2.400000e+01 1.600000e+01 1.200000e+01
   endloop
 endfacet
 facet normal 1.000000e+00 0.000000e+00 0.000000e+00
   outer loop
     vertex 2.400000e+01 0.000000e+00 1.200000e+01
     vertex 2.400000e+01 0.000000e+00 0.000000e+00
     vertex 2.400000e+01 1.600000e+01 0.000000e+00
   endloop
 endfacet
 facet normal 0.000000e+00 -1.000000e+00 -0.000000e+00
   outer loop
     vertex 2.400000e+01 0.000000e+00 1.200000e+01
     vertex 0.000000e+00 0.000000e+00 0.000000e+00
     vertex 2.400000e+01 0.000000e+00 0.000000e+00
   endloop
 endfacet
 facet normal -0.000000e+00 -1.000000e+00 0.000000e+00
   outer loop
     vertex 2.400000e+01 0.000000e+00 1.200000e+01
     vertex 0.000000e+00 0.000000e+00 1.200000e+01
     vertex 0.000000e+00 0.000000e+00 0.000000e+00
   endloop
 endfacet
 facet normal 0.000000e+00 1.000000e+00 0.000000e+00
   outer loop
     vertex 2.400000e+01 1.600000e+01 1.200000e+01
     vertex 2.400000e+01 1.600000e+01 0.000000e+00
     vertex 0.000000e+00 1.600000e+01 0.000000e+00
   endloop
 endfacet
 facet normal 0.000000e+00 1.000000e+00 0.000000e+00
   outer loop
     vertex 2.400000e+01 1.600000e+01 1.200000e+01
     vertex 0.000000e+00 1.600000e+01 0.000000e+00
     vertex 0.000000e+00 1.600000e+01 1.200000e+01
   endloop
 endfacet
 facet normal -0.000000e+00 0.000000e+00 -1.000000e+00
   outer loop
     vertex 2.400000e+01 1.600000e+01 0.000000e+00
     vertex 0.000000e+00 0.000000e+00 0.000000e+00
     vertex 0.000000e+00 1.600000e+01 0.000000e+00
   endloop
 endfacet
 facet normal 0.000000e+00 -0.000000e+00 -1.000000e+00
   outer loop
     vertex 2.400000e+01 1.600000e+01 0.000000e+00
     vertex 2.400000e+01 0.000000e+00 0.000000e+00
     vertex 0.000000e+00 0.000000e+00 0.000000e+00
   endloop
 endfacet
 facet normal 0.000000e+00 0.000000e+00 1.000000e+00
   outer loop
     vertex 2.400000e+01 1.600000e+01 1.200000e+01
     vertex 0.000000e+00 1.600000e+01 1.200000e+01
     vertex 0.000000e+00 0.000000e+00 1.200000e+01
   endloop
 endfacet
 facet normal 0.000000e+00 0.000000e+00 1.000000e+00
   outer loop
     vertex 2.400000e+01 1.600000e+01 1.200000e+01
     vertex 0.000000e+00 0.000000e+00 1.200000e+01
     vertex 2.400000e+01 0.000000e+00 1.200000e+01
   endloop
 endfacet
endsolid shape
