solid surroundings.stl
facet normal 0.0 0.0 -0.038400013
  outer loop
    vertex -0.66 -0.54 -0.00016
    vertex -0.66 -0.38 -0.00016
    vertex -0.42 -0.54 -0.00016
  endloop
endfacet
facet normal 0.0 0.0 -0.038400013
  outer loop
    vertex -0.42 -0.54 -0.00016
    vertex -0.66 -0.38 -0.00016
    vertex -0.42 -0.38 -0.00016
  endloop
endfacet
facet normal -0.028825605 0.0 0.0
  outer loop
    vertex -0.66 -0.54 -0.00016
    vertex -0.66 -0.54 0.18
    vertex -0.66 -0.38 0.18
  endloop
endfacet
facet normal -0.028825605 0.0 0.0
  outer loop
    vertex -0.66 -0.54 -0.00016
    vertex -0.66 -0.38 0.18
    vertex -0.66 -0.38 -0.00016
  endloop
endfacet
facet normal 0.0 0.0 0.038400013
  outer loop
    vertex -0.66 -0.54 0.18
    vertex -0.42 -0.54 0.18
    vertex -0.42 -0.38 0.18
  endloop
endfacet
facet normal 0.0 0.0 0.038400013
  outer loop
    vertex -0.66 -0.54 0.18
    vertex -0.42 -0.38 0.18
    vertex -0.66 -0.38 0.18
  endloop
endfacet
facet normal 0.028825605 0.0 0.0
  outer loop
    vertex -0.42 -0.54 0.18
    vertex -0.42 -0.54 -0.00016
    vertex -0.42 -0.38 -0.00016
  endloop
endfacet
facet normal 0.028825605 -0.0 0.0
  outer loop
    vertex -0.42 -0.54 0.18
    vertex -0.42 -0.38 -0.00016
    vertex -0.42 -0.38 0.18
  endloop
endfacet
facet normal 0.0 0.04323841 -0.0
  outer loop
    vertex -0.42 -0.38 -0.00016
    vertex -0.66 -0.38 -0.00016
    vertex -0.42 -0.38 0.18
  endloop
endfacet
facet normal 0.0 0.04323841 0.0
  outer loop
    vertex -0.66 -0.38 -0.00016
    vertex -0.66 -0.38 0.18
    vertex -0.42 -0.38 0.18
  endloop
endfacet
facet normal 0.0 -0.04323841 0.0
  outer loop
    vertex -0.66 -0.54 -0.00016
    vertex -0.42 -0.54 -0.00016
    vertex -0.42 -0.54 0.18
  endloop
endfacet
facet normal 0.0 -0.04323841 0.0
  outer loop
    vertex -0.66 -0.54 -0.00016
    vertex -0.42 -0.54 0.18
    vertex -0.66 -0.54 0.18
  endloop
endfacet
facet normal 0.0 0.0 -0.038400006
  outer loop
    vertex -0.66 -0.08 -0.00016
    vertex -0.66 0.08 -0.00016
    vertex -0.42 -0.08 -0.00016
  endloop
endfacet
facet normal 0.0 0.0 -0.038400006
  outer loop
    vertex -0.42 -0.08 -0.00016
    vertex -0.66 0.08 -0.00016
    vertex -0.42 0.08 -0.00016
  endloop
endfacet
facet normal -0.0288256 0.0 0.0
  outer loop
    vertex -0.66 -0.08 -0.00016
    vertex -0.66 -0.08 0.18
    vertex -0.66 0.08 0.18
  endloop
endfacet
facet normal -0.0288256 0.0 0.0
  outer loop
    vertex -0.66 -0.08 -0.00016
    vertex -0.66 0.08 0.18
    vertex -0.66 0.08 -0.00016
  endloop
endfacet
facet normal 0.0 0.0 0.038400006
  outer loop
    vertex -0.66 -0.08 0.18
    vertex -0.42 -0.08 0.18
    vertex -0.42 0.08 0.18
  endloop
endfacet
facet normal 0.0 0.0 0.038400006
  outer loop
    vertex -0.66 -0.08 0.18
    vertex -0.42 0.08 0.18
    vertex -0.66 0.08 0.18
  endloop
endfacet
facet normal 0.0288256 0.0 0.0
  outer loop
    vertex -0.42 -0.08 0.18
    vertex -0.42 -0.08 -0.00016
    vertex -0.42 0.08 -0.00016
  endloop
endfacet
facet normal 0.0288256 -0.0 0.0
  outer loop
    vertex -0.42 -0.08 0.18
    vertex -0.42 0.08 -0.00016
    vertex -0.42 0.08 0.18
  endloop
endfacet
facet normal 0.0 0.04323841 -0.0
  outer loop
    vertex -0.42 0.08 -0.00016
    vertex -0.66 0.08 -0.00016
    vertex -0.42 0.08 0.18
  endloop
endfacet
facet normal 0.0 0.04323841 0.0
  outer loop
    vertex -0.66 0.08 -0.00016
    vertex -0.66 0.08 0.18
    vertex -0.42 0.08 0.18
  endloop
endfacet
facet normal 0.0 -0.04323841 0.0
  outer loop
    vertex -0.66 -0.08 -0.00016
    vertex -0.42 -0.08 -0.00016
    vertex -0.42 -0.08 0.18
  endloop
endfacet
facet normal 0.0 -0.04323841 0.0
  outer loop
    vertex -0.66 -0.08 -0.00016
    vertex -0.42 -0.08 0.18
    vertex -0.66 -0.08 0.18
  endloop
endfacet
facet normal 0.0 0.0 -0.038400013
  outer loop
    vertex -0.66 0.38 -0.00016
    vertex -0.66 0.54 -0.00016
    vertex -0.42 0.38 -0.00016
  endloop
endfacet
facet normal 0.0 0.0 -0.038400013
  outer loop
    vertex -0.42 0.38 -0.00016
    vertex -0.66 0.54 -0.00016
    vertex -0.42 0.54 -0.00016
  endloop
endfacet
facet normal -0.028825605 0.0 0.0
  outer loop
    vertex -0.66 0.38 -0.00016
    vertex -0.66 0.38 0.18
    vertex -0.66 0.54 0.18
  endloop
endfacet
facet normal -0.028825605 0.0 0.0
  outer loop
    vertex -0.66 0.38 -0.00016
    vertex -0.66 0.54 0.18
    vertex -0.66 0.54 -0.00016
  endloop
endfacet
facet normal 0.0 0.0 0.038400013
  outer loop
    vertex -0.66 0.38 0.18
    vertex -0.42 0.38 0.18
    vertex -0.42 0.54 0.18
  endloop
endfacet
facet normal 0.0 0.0 0.038400013
  outer loop
    vertex -0.66 0.38 0.18
    vertex -0.42 0.54 0.18
    vertex -0.66 0.54 0.18
  endloop
endfacet
facet normal 0.028825605 0.0 0.0
  outer loop
    vertex -0.42 0.38 0.18
    vertex -0.42 0.38 -0.00016
    vertex -0.42 0.54 -0.00016
  endloop
endfacet
facet normal 0.028825605 -0.0 0.0
  outer loop
    vertex -0.42 0.38 0.18
    vertex -0.42 0.54 -0.00016
    vertex -0.42 0.54 0.18
  endloop
endfacet
facet normal 0.0 0.04323841 -0.0
  outer loop
    vertex -0.42 0.54 -0.00016
    vertex -0.66 0.54 -0.00016
    vertex -0.42 0.54 0.18
  endloop
endfacet
facet normal 0.0 0.04323841 0.0
  outer loop
    vertex -0.66 0.54 -0.00016
    vertex -0.66 0.54 0.18
    vertex -0.42 0.54 0.18
  endloop
endfacet
facet normal 0.0 -0.04323841 0.0
  outer loop
    vertex -0.66 0.38 -0.00016
    vertex -0.42 0.38 -0.00016
    vertex -0.42 0.38 0.18
  endloop
endfacet
facet normal 0.0 -0.04323841 0.0
  outer loop
    vertex -0.66 0.38 -0.00016
    vertex -0.42 0.38 0.18
    vertex -0.66 0.38 0.18
  endloop
endfacet
facet normal 0.0 0.0 -0.038400006
  outer loop
    vertex -0.12 -1.0 -0.00016
    vertex -0.12 -0.84 -0.00016
    vertex 0.12 -1.0 -0.00016
  endloop
endfacet
facet normal 0.0 0.0 -0.038400006
  outer loop
    vertex 0.12 -1.0 -0.00016
    vertex -0.12 -0.84 -0.00016
    vertex 0.12 -0.84 -0.00016
  endloop
endfacet
facet normal -0.028825605 0.0 0.0
  outer loop
    vertex -0.12 -1.0 -0.00016
    vertex -0.12 -1.0 0.18
    vertex -0.12 -0.84 0.18
  endloop
endfacet
facet normal -0.028825605 0.0 0.0
  outer loop
    vertex -0.12 -1.0 -0.00016
    vertex -0.12 -0.84 0.18
    vertex -0.12 -0.84 -0.00016
  endloop
endfacet
facet normal 0.0 0.0 0.038400006
  outer loop
    vertex -0.12 -1.0 0.18
    vertex 0.12 -1.0 0.18
    vertex 0.12 -0.84 0.18
  endloop
endfacet
facet normal 0.0 0.0 0.038400006
  outer loop
    vertex -0.12 -1.0 0.18
    vertex 0.12 -0.84 0.18
    vertex -0.12 -0.84 0.18
  endloop
endfacet
facet normal 0.028825605 0.0 0.0
  outer loop
    vertex 0.12 -1.0 0.18
    vertex 0.12 -1.0 -0.00016
    vertex 0.12 -0.84 -0.00016
  endloop
endfacet
facet normal 0.028825605 -0.0 0.0
  outer loop
    vertex 0.12 -1.0 0.18
    vertex 0.12 -0.84 -0.00016
    vertex 0.12 -0.84 0.18
  endloop
endfacet
facet normal 0.0 0.043238398 -0.0
  outer loop
    vertex 0.12 -0.84 -0.00016
    vertex -0.12 -0.84 -0.00016
    vertex 0.12 -0.84 0.18
  endloop
endfacet
facet normal 0.0 0.043238398 0.0
  outer loop
    vertex -0.12 -0.84 -0.00016
    vertex -0.12 -0.84 0.18
    vertex 0.12 -0.84 0.18
  endloop
endfacet
facet normal 0.0 -0.043238398 0.0
  outer loop
    vertex -0.12 -1.0 -0.00016
    vertex 0.12 -1.0 -0.00016
    vertex 0.12 -1.0 0.18
  endloop
endfacet
facet normal 0.0 -0.043238398 0.0
  outer loop
    vertex -0.12 -1.0 -0.00016
    vertex 0.12 -1.0 0.18
    vertex -0.12 -1.0 0.18
  endloop
endfacet
facet normal 0.0 0.0 -0.038400006
  outer loop
    vertex -0.12 -0.54 -0.00016
    vertex -0.12 -0.38 -0.00016
    vertex 0.12 -0.54 -0.00016
  endloop
endfacet
facet normal 0.0 0.0 -0.038400006
  outer loop
    vertex 0.12 -0.54 -0.00016
    vertex -0.12 -0.38 -0.00016
    vertex 0.12 -0.38 -0.00016
  endloop
endfacet
facet normal -0.028825605 0.0 0.0
  outer loop
    vertex -0.12 -0.54 -0.00016
    vertex -0.12 -0.54 0.18
    vertex -0.12 -0.38 0.18
  endloop
endfacet
facet normal -0.028825605 0.0 0.0
  outer loop
    vertex -0.12 -0.54 -0.00016
    vertex -0.12 -0.38 0.18
    vertex -0.12 -0.38 -0.00016
  endloop
endfacet
facet normal 0.0 0.0 0.038400006
  outer loop
    vertex -0.12 -0.54 0.18
    vertex 0.12 -0.54 0.18
    vertex 0.12 -0.38 0.18
  endloop
endfacet
facet normal 0.0 0.0 0.038400006
  outer loop
    vertex -0.12 -0.54 0.18
    vertex 0.12 -0.38 0.18
    vertex -0.12 -0.38 0.18
  endloop
endfacet
facet normal 0.028825605 0.0 0.0
  outer loop
    vertex 0.12 -0.54 0.18
    vertex 0.12 -0.54 -0.00016
    vertex 0.12 -0.38 -0.00016
  endloop
endfacet
facet normal 0.028825605 -0.0 0.0
  outer loop
    vertex 0.12 -0.54 0.18
    vertex 0.12 -0.38 -0.00016
    vertex 0.12 -0.38 0.18
  endloop
endfacet
facet normal 0.0 0.043238398 -0.0
  outer loop
    vertex 0.12 -0.38 -0.00016
    vertex -0.12 -0.38 -0.00016
    vertex 0.12 -0.38 0.18
  endloop
endfacet
facet normal 0.0 0.043238398 0.0
  outer loop
    vertex -0.12 -0.38 -0.00016
    vertex -0.12 -0.38 0.18
    vertex 0.12 -0.38 0.18
  endloop
endfacet
facet normal 0.0 -0.043238398 0.0
  outer loop
    vertex -0.12 -0.54 -0.00016
    vertex 0.12 -0.54 -0.00016
    vertex 0.12 -0.54 0.18
  endloop
endfacet
facet normal 0.0 -0.043238398 0.0
  outer loop
    vertex -0.12 -0.54 -0.00016
    vertex 0.12 -0.54 0.18
    vertex -0.12 -0.54 0.18
  endloop
endfacet
facet normal 0.0 0.0 -0.038400006
  outer loop
    vertex -0.12 0.38 -0.00016
    vertex -0.12 0.54 -0.00016
    vertex 0.12 0.38 -0.00016
  endloop
endfacet
facet normal 0.0 0.0 -0.038400006
  outer loop
    vertex 0.12 0.38 -0.00016
    vertex -0.12 0.54 -0.00016
    vertex 0.12 0.54 -0.00016
  endloop
endfacet
facet normal -0.028825605 0.0 0.0
  outer loop
    vertex -0.12 0.38 -0.00016
    vertex -0.12 0.38 0.18
    vertex -0.12 0.54 0.18
  endloop
endfacet
facet normal -0.028825605 0.0 0.0
  outer loop
    vertex -0.12 0.38 -0.00016
    vertex -0.12 0.54 0.18
    vertex -0.12 0.54 -0.00016
  endloop
endfacet
facet normal 0.0 0.0 0.038400006
  outer loop
    vertex -0.12 0.38 0.18
    vertex 0.12 0.38 0.18
    vertex 0.12 0.54 0.18
  endloop
endfacet
facet normal 0.0 0.0 0.038400006
  outer loop
    vertex -0.12 0.38 0.18
    vertex 0.12 0.54 0.18
    vertex -0.12 0.54 0.18
  endloop
endfacet
facet normal 0.028825605 0.0 0.0
  outer loop
    vertex 0.12 0.38 0.18
    vertex 0.12 0.38 -0.00016
    vertex 0.12 0.54 -0.00016
  endloop
endfacet
facet normal 0.028825605 -0.0 0.0
  outer loop
    vertex 0.12 0.38 0.18
    vertex 0.12 0.54 -0.00016
    vertex 0.12 0.54 0.18
  endloop
endfacet
facet normal 0.0 0.043238398 -0.0
  outer loop
    vertex 0.12 0.54 -0.00016
    vertex -0.12 0.54 -0.00016
    vertex 0.12 0.54 0.18
  endloop
endfacet
facet normal 0.0 0.043238398 0.0
  outer loop
    vertex -0.12 0.54 -0.00016
    vertex -0.12 0.54 0.18
    vertex 0.12 0.54 0.18
  endloop
endfacet
facet normal 0.0 -0.043238398 0.0
  outer loop
    vertex -0.12 0.38 -0.00016
    vertex 0.12 0.38 -0.00016
    vertex 0.12 0.38 0.18
  endloop
endfacet
facet normal 0.0 -0.043238398 0.0
  outer loop
    vertex -0.12 0.38 -0.00016
    vertex 0.12 0.38 0.18
    vertex -0.12 0.38 0.18
  endloop
endfacet
facet normal 0.0 0.0 -0.038400006
  outer loop
    vertex -0.12 0.84 -0.00016
    vertex -0.12 1.0 -0.00016
    vertex 0.12 0.84 -0.00016
  endloop
endfacet
facet normal 0.0 0.0 -0.038400006
  outer loop
    vertex 0.12 0.84 -0.00016
    vertex -0.12 1.0 -0.00016
    vertex 0.12 1.0 -0.00016
  endloop
endfacet
facet normal -0.028825605 0.0 0.0
  outer loop
    vertex -0.12 0.84 -0.00016
    vertex -0.12 0.84 0.18
    vertex -0.12 1.0 0.18
  endloop
endfacet
facet normal -0.028825605 0.0 0.0
  outer loop
    vertex -0.12 0.84 -0.00016
    vertex -0.12 1.0 0.18
    vertex -0.12 1.0 -0.00016
  endloop
endfacet
facet normal 0.0 0.0 0.038400006
  outer loop
    vertex -0.12 0.84 0.18
    vertex 0.12 0.84 0.18
    vertex 0.12 1.0 0.18
  endloop
endfacet
facet normal 0.0 0.0 0.038400006
  outer loop
    vertex -0.12 0.84 0.18
    vertex 0.12 1.0 0.18
    vertex -0.12 1.0 0.18
  endloop
endfacet
facet normal 0.028825605 0.0 0.0
  outer loop
    vertex 0.12 0.84 0.18
    vertex 0.12 0.84 -0.00016
    vertex 0.12 1.0 -0.00016
  endloop
endfacet
facet normal 0.028825605 -0.0 0.0
  outer loop
    vertex 0.12 0.84 0.18
    vertex 0.12 1.0 -0.00016
    vertex 0.12 1.0 0.18
  endloop
endfacet
facet normal 0.0 0.043238398 -0.0
  outer loop
    vertex 0.12 1.0 -0.00016
    vertex -0.12 1.0 -0.00016
    vertex 0.12 1.0 0.18
  endloop
endfacet
facet normal 0.0 0.043238398 0.0
  outer loop
    vertex -0.12 1.0 -0.00016
    vertex -0.12 1.0 0.18
    vertex 0.12 1.0 0.18
  endloop
endfacet
facet normal 0.0 -0.043238398 0.0
  outer loop
    vertex -0.12 0.84 -0.00016
    vertex 0.12 0.84 -0.00016
    vertex 0.12 0.84 0.18
  endloop
endfacet
facet normal 0.0 -0.043238398 0.0
  outer loop
    vertex -0.12 0.84 -0.00016
    vertex 0.12 0.84 0.18
    vertex -0.12 0.84 0.18
  endloop
endfacet
facet normal 0.0 0.0 -0.038400013
  outer loop
    vertex 0.42 -0.54 -0.00016
    vertex 0.42 -0.38 -0.00016
    vertex 0.66 -0.54 -0.00016
  endloop
endfacet
facet normal 0.0 0.0 -0.038400013
  outer loop
    vertex 0.66 -0.54 -0.00016
    vertex 0.42 -0.38 -0.00016
    vertex 0.66 -0.38 -0.00016
  endloop
endfacet
facet normal -0.028825605 0.0 0.0
  outer loop
    vertex 0.42 -0.54 -0.00016
    vertex 0.42 -0.54 0.18
    vertex 0.42 -0.38 0.18
  endloop
endfacet
facet normal -0.028825605 0.0 0.0
  outer loop
    vertex 0.42 -0.54 -0.00016
    vertex 0.42 -0.38 0.18
    vertex 0.42 -0.38 -0.00016
  endloop
endfacet
facet normal 0.0 0.0 0.038400013
  outer loop
    vertex 0.42 -0.54 0.18
    vertex 0.66 -0.54 0.18
    vertex 0.66 -0.38 0.18
  endloop
endfacet
facet normal 0.0 0.0 0.038400013
  outer loop
    vertex 0.42 -0.54 0.18
    vertex 0.66 -0.38 0.18
    vertex 0.42 -0.38 0.18
  endloop
endfacet
facet normal 0.028825605 0.0 0.0
  outer loop
    vertex 0.66 -0.54 0.18
    vertex 0.66 -0.54 -0.00016
    vertex 0.66 -0.38 -0.00016
  endloop
endfacet
facet normal 0.028825605 -0.0 0.0
  outer loop
    vertex 0.66 -0.54 0.18
    vertex 0.66 -0.38 -0.00016
    vertex 0.66 -0.38 0.18
  endloop
endfacet
facet normal 0.0 0.04323841 -0.0
  outer loop
    vertex 0.66 -0.38 -0.00016
    vertex 0.42 -0.38 -0.00016
    vertex 0.66 -0.38 0.18
  endloop
endfacet
facet normal 0.0 0.04323841 0.0
  outer loop
    vertex 0.42 -0.38 -0.00016
    vertex 0.42 -0.38 0.18
    vertex 0.66 -0.38 0.18
  endloop
endfacet
facet normal 0.0 -0.04323841 0.0
  outer loop
    vertex 0.42 -0.54 -0.00016
    vertex 0.66 -0.54 -0.00016
    vertex 0.66 -0.54 0.18
  endloop
endfacet
facet normal 0.0 -0.04323841 0.0
  outer loop
    vertex 0.42 -0.54 -0.00016
    vertex 0.66 -0.54 0.18
    vertex 0.42 -0.54 0.18
  endloop
endfacet
facet normal 0.0 0.0 -0.038400006
  outer loop
    vertex 0.42 -0.08 -0.00016
    vertex 0.42 0.08 -0.00016
    vertex 0.66 -0.08 -0.00016
  endloop
endfacet
facet normal 0.0 0.0 -0.038400006
  outer loop
    vertex 0.66 -0.08 -0.00016
    vertex 0.42 0.08 -0.00016
    vertex 0.66 0.08 -0.00016
  endloop
endfacet
facet normal -0.0288256 0.0 0.0
  outer loop
    vertex 0.42 -0.08 -0.00016
    vertex 0.42 -0.08 0.18
    vertex 0.42 0.08 0.18
  endloop
endfacet
facet normal -0.0288256 0.0 0.0
  outer loop
    vertex 0.42 -0.08 -0.00016
    vertex 0.42 0.08 0.18
    vertex 0.42 0.08 -0.00016
  endloop
endfacet
facet normal 0.0 0.0 0.038400006
  outer loop
    vertex 0.42 -0.08 0.18
    vertex 0.66 -0.08 0.18
    vertex 0.66 0.08 0.18
  endloop
endfacet
facet normal 0.0 0.0 0.038400006
  outer loop
    vertex 0.42 -0.08 0.18
    vertex 0.66 0.08 0.18
    vertex 0.42 0.08 0.18
  endloop
endfacet
facet normal 0.0288256 0.0 0.0
  outer loop
    vertex 0.66 -0.08 0.18
    vertex 0.66 -0.08 -0.00016
    vertex 0.66 0.08 -0.00016
  endloop
endfacet
facet normal 0.0288256 -0.0 0.0
  outer loop
    vertex 0.66 -0.08 0.18
    vertex 0.66 0.08 -0.00016
    vertex 0.66 0.08 0.18
  endloop
endfacet
facet normal 0.0 0.04323841 -0.0
  outer loop
    vertex 0.66 0.08 -0.00016
    vertex 0.42 0.08 -0.00016
    vertex 0.66 0.08 0.18
  endloop
endfacet
facet normal 0.0 0.04323841 0.0
  outer loop
    vertex 0.42 0.08 -0.00016
    vertex 0.42 0.08 0.18
    vertex 0.66 0.08 0.18
  endloop
endfacet
facet normal 0.0 -0.04323841 0.0
  outer loop
    vertex 0.42 -0.08 -0.00016
    vertex 0.66 -0.08 -0.00016
    vertex 0.66 -0.08 0.18
  endloop
endfacet
facet normal 0.0 -0.04323841 0.0
  outer loop
    vertex 0.42 -0.08 -0.00016
    vertex 0.66 -0.08 0.18
    vertex 0.42 -0.08 0.18
  endloop
endfacet
facet normal 0.0 0.0 -0.038400013
  outer loop
    vertex 0.42 0.38 -0.00016
    vertex 0.42 0.54 -0.00016
    vertex 0.66 0.38 -0.00016
  endloop
endfacet
facet normal 0.0 0.0 -0.038400013
  outer loop
    vertex 0.66 0.38 -0.00016
    vertex 0.42 0.54 -0.00016
    vertex 0.66 0.54 -0.00016
  endloop
endfacet
facet normal -0.028825605 0.0 0.0
  outer loop
    vertex 0.42 0.38 -0.00016
    vertex 0.42 0.38 0.18
    vertex 0.42 0.54 0.18
  endloop
endfacet
facet normal -0.028825605 0.0 0.0
  outer loop
    vertex 0.42 0.38 -0.00016
    vertex 0.42 0.54 0.18
    vertex 0.42 0.54 -0.00016
  endloop
endfacet
facet normal 0.0 0.0 0.038400013
  outer loop
    vertex 0.42 0.38 0.18
    vertex 0.66 0.38 0.18
    vertex 0.66 0.54 0.18
  endloop
endfacet
facet normal 0.0 0.0 0.038400013
  outer loop
    vertex 0.42 0.38 0.18
    vertex 0.66 0.54 0.18
    vertex 0.42 0.54 0.18
  endloop
endfacet
facet normal 0.028825605 0.0 0.0
  outer loop
    vertex 0.66 0.38 0.18
    vertex 0.66 0.38 -0.00016
    vertex 0.66 0.54 -0.00016
  endloop
endfacet
facet normal 0.028825605 -0.0 0.0
  outer loop
    vertex 0.66 0.38 0.18
    vertex 0.66 0.54 -0.00016
    vertex 0.66 0.54 0.18
  endloop
endfacet
facet normal 0.0 0.04323841 -0.0
  outer loop
    vertex 0.66 0.54 -0.00016
    vertex 0.42 0.54 -0.00016
    vertex 0.66 0.54 0.18
  endloop
endfacet
facet normal 0.0 0.04323841 0.0
  outer loop
    vertex 0.42 0.54 -0.00016
    vertex 0.42 0.54 0.18
    vertex 0.66 0.54 0.18
  endloop
endfacet
facet normal 0.0 -0.04323841 0.0
  outer loop
    vertex 0.42 0.38 -0.00016
    vertex 0.66 0.38 -0.00016
    vertex 0.66 0.38 0.18
  endloop
endfacet
facet normal 0.0 -0.04323841 0.0
  outer loop
    vertex 0.42 0.38 -0.00016
    vertex 0.66 0.38 0.18
    vertex 0.42 0.38 0.18
  endloop
endfacet
endsolid surroundings.stl
